<svg xmlns="http://www.w3.org/2000/svg" xmlns:xlink="http://www.w3.org/1999/xlink" width="1256.486" height="1155.739" viewBox="0 0 1256.486 1155.739"><defs><linearGradient id="a" x1="0.781" y1="1.445" x2="0.781" y2="0.404" gradientUnits="objectBoundingBox"><stop offset="0" stop-color="#dbccff"/><stop offset="1" stop-color="#d1bbff"/></linearGradient><linearGradient id="b" x1="0.809" y1="1.451" x2="0.809" y2="0.409" gradientUnits="objectBoundingBox"><stop offset="0" stop-color="#b5a6e7"/><stop offset="1" stop-color="#7760bf"/></linearGradient><linearGradient id="c" x1="1.317" y1="2.018" x2="1.317" y2="0.974" xlink:href="#b"/><linearGradient id="d" x1="2.307" y1="7.922" x2="1.203" y2="7.922" gradientUnits="objectBoundingBox"><stop offset="0" stop-color="#8b8be0"/><stop offset="1" stop-color="#a177b7"/></linearGradient><linearGradient id="e" x1="1.177" y1="3.492" x2="1.177" y2="2.973" gradientUnits="objectBoundingBox"><stop offset="0" stop-color="#fff"/><stop offset="1" stop-color="#a177b7"/></linearGradient><linearGradient id="f" x1="1.608" y1="2.023" x2="1.608" y2="0.943" gradientUnits="objectBoundingBox"><stop offset="0"/><stop offset="1" stop-color="#fff"/></linearGradient><linearGradient id="g" x1="0.5" y1="1" x2="0.5" gradientUnits="objectBoundingBox"><stop offset="0" stop-color="#6456c0"/><stop offset="1" stop-color="#5f2c95"/></linearGradient><radialGradient id="h" cx="0.514" cy="0.521" r="0.498" gradientTransform="matrix(0, -1, -1.003, 0, 1.016, 0.933)" gradientUnits="objectBoundingBox"><stop offset="0" stop-color="#4b474b"/><stop offset="1"/></radialGradient><radialGradient id="i" cx="0.469" cy="0.513" r="0.193" gradientTransform="matrix(2.584, 0, 0, -2.591, -2.174, 1.611)" xlink:href="#h"/><linearGradient id="j" x1="1" y1="0.501" x2="0" y2="0.501" gradientUnits="objectBoundingBox"><stop offset="0" stop-color="#9e8cef"/><stop offset="1" stop-color="#caafee"/></linearGradient><linearGradient id="k" x1="-1.514" y1="0.501" x2="-2.514" y2="0.501" xlink:href="#j"/><linearGradient id="l" x1="0.5" y1="1" x2="0.5" gradientUnits="objectBoundingBox"><stop offset="0" stop-color="#ccf"/><stop offset="1" stop-color="#755cbb"/></linearGradient><linearGradient id="m" x1="0.499" x2="0.499" y2="0" xlink:href="#l"/><linearGradient id="n" x1="0.5" x2="0.5" y2="0" xlink:href="#l"/><linearGradient id="o" x1="0.502" y1="1" x2="0.502" y2="-0.002" gradientUnits="objectBoundingBox"><stop offset="0" stop-color="#d5cdf8"/><stop offset="1" stop-color="#f3edfb"/></linearGradient><linearGradient id="p" x1="1.002" y1="0.499" x2="0.001" y2="0.499" xlink:href="#l"/><linearGradient id="q" x1="0.5" y1="1" x2="0.5" y2="0" xlink:href="#j"/><linearGradient id="r" x1="1" y1="0.5" x2="0" y2="0.5" xlink:href="#l"/><linearGradient id="s" x1="0.5" y1="1" x2="0.5" gradientUnits="objectBoundingBox"><stop offset="0" stop-color="#9e8cef"/><stop offset="1" stop-color="#dac7f3"/></linearGradient><linearGradient id="t" x1="1" y1="0.5" x2="0" y2="0.5" gradientUnits="objectBoundingBox"><stop offset="0" stop-color="#a999f1"/><stop offset="1" stop-color="#dac7f3"/></linearGradient><linearGradient id="u" x1="0.501" y1="1" x2="0.501" gradientUnits="objectBoundingBox"><stop offset="0.02" stop-color="#ffc2a9"/><stop offset="1" stop-color="#ff9595"/></linearGradient><linearGradient id="v" x1="0.503" y1="1" x2="0.503" gradientUnits="objectBoundingBox"><stop offset="0" stop-color="#ffeadb"/><stop offset="0.99" stop-color="#c27cb6"/></linearGradient><linearGradient id="w" x1="0.5" y1="1" x2="0.5" y2="-0.001" xlink:href="#u"/><linearGradient id="x" x1="1" y1="0.5" x2="0" y2="0.5" gradientUnits="objectBoundingBox"><stop offset="0.02" stop-color="#d1a1d6"/><stop offset="0.99" stop-color="#bd89c4"/></linearGradient><linearGradient id="y" x1="0.5" y1="1" x2="0.5" y2="-0.001" xlink:href="#u"/><linearGradient id="z" x1="0.499" y1="0.999" x2="0.499" y2="-0.002" xlink:href="#v"/><linearGradient id="aa" x1="0.5" y1="1" x2="0.5" gradientUnits="objectBoundingBox"><stop offset="0" stop-color="#ffb0b0"/><stop offset="0.98" stop-color="#ffc2a9"/></linearGradient><linearGradient id="ab" x1="0.499" y1="1" x2="0.499" y2="0" xlink:href="#aa"/><linearGradient id="ad" x1="0.5" x2="0.5" y2="0" xlink:href="#l"/><linearGradient id="ae" x1="1" y1="0.5" x2="0" y2="0.5" xlink:href="#l"/><linearGradient id="af" x1="1" y1="0.5" x2="0" y2="0.5" gradientUnits="objectBoundingBox"><stop offset="0" stop-color="#ccedff"/><stop offset="1" stop-color="#755cbb"/></linearGradient><linearGradient id="ag" x1="1" y1="0.5" x2="0" y2="0.5" xlink:href="#af"/><linearGradient id="ah" x1="1" y1="0.502" x2="0" y2="0.502" xlink:href="#af"/><linearGradient id="ai" x1="0.5" y1="1" x2="0.5" y2="0" xlink:href="#af"/><linearGradient id="aj" x1="0.5" y1="1.001" x2="0.5" y2="0.001" xlink:href="#af"/><linearGradient id="ak" x1="0.5" y1="1" x2="0.5" y2="0" xlink:href="#af"/><linearGradient id="al" x1="1.001" y1="0.5" x2="0.002" y2="0.5" xlink:href="#af"/><linearGradient id="am" x1="0.499" x2="0.499" y2="0" xlink:href="#l"/><linearGradient id="an" x1="0.5" x2="0.5" y2="0" xlink:href="#l"/><linearGradient id="ao" x1="0.5" x2="0.5" y2="0" xlink:href="#l"/><linearGradient id="ap" x1="0.5" y1="0.996" x2="0.5" y2="-0.004" xlink:href="#af"/><linearGradient id="aq" x1="0.499" x2="0.499" y2="0" xlink:href="#l"/><linearGradient id="ar" x1="0.5" y1="1" x2="0.5" y2="0" xlink:href="#af"/><linearGradient id="as" x1="0.499" y1="1" x2="0.499" y2="0" xlink:href="#af"/><linearGradient id="at" x1="0.999" y1="0.499" x2="0" y2="0.499" xlink:href="#l"/><linearGradient id="au" x1="0.5" x2="0.5" y2="0" xlink:href="#l"/><linearGradient id="av" x1="0.501" x2="0.501" y2="0" xlink:href="#l"/><linearGradient id="aw" x1="0.5" x2="0.5" y2="0" xlink:href="#l"/><linearGradient id="ax" x1="0.5" y1="0.999" x2="0.5" y2="0" xlink:href="#l"/><linearGradient id="ay" x1="0.5" y1="1" x2="0.5" y2="0.001" xlink:href="#u"/><linearGradient id="az" x1="0.5" y1="0.999" x2="0.5" y2="0" xlink:href="#u"/><linearGradient id="ba" x1="0.529" y1="0.933" x2="0.483" y2="0.115" gradientUnits="objectBoundingBox"><stop offset="0" stop-color="#e1616a"/><stop offset="1" stop-color="#ff8883"/></linearGradient><linearGradient id="bb" x1="0.5" y1="1" x2="0.5" y2="0" xlink:href="#v"/><linearGradient id="bc" x1="0.499" y1="1" x2="0.499" gradientUnits="objectBoundingBox"><stop offset="0" stop-color="#cf6074"/><stop offset="1" stop-color="#f37270"/></linearGradient><linearGradient id="bd" x1="0.501" y1="1" x2="0.501" gradientUnits="objectBoundingBox"><stop offset="0" stop-color="#cf6074"/><stop offset="1" stop-color="#ff817f"/></linearGradient><linearGradient id="be" x1="0.502" y1="1" x2="0.502" y2="0" xlink:href="#v"/><linearGradient id="bf" x1="0.5" y1="1" x2="0.5" gradientUnits="objectBoundingBox"><stop offset="0" stop-color="#2e33a0"/><stop offset="1" stop-color="#0665a5"/></linearGradient><linearGradient id="bg" x1="0.499" y1="1" x2="0.499" gradientUnits="objectBoundingBox"><stop offset="0" stop-color="#ffeadb"/><stop offset="0.99" stop-color="#8860c7"/></linearGradient><linearGradient id="bh" x1="0.5" y1="0.999" x2="0.5" y2="0.007" gradientUnits="objectBoundingBox"><stop offset="0" stop-color="#776d7e"/><stop offset="1" stop-color="#9d68c2"/></linearGradient><linearGradient id="bi" x1="0.5" y1="0.993" x2="0.5" y2="-0.001" gradientUnits="objectBoundingBox"><stop offset="0" stop-color="#1f77d1"/><stop offset="1" stop-color="#0686c9"/></linearGradient><linearGradient id="bj" x1="0.5" y1="1.001" x2="0.5" y2="0" xlink:href="#bi"/><linearGradient id="bk" x1="0.502" y1="1" x2="0.502" y2="0" xlink:href="#bi"/><linearGradient id="bl" x1="0.195" y1="0.799" x2="1.138" y2="0.078" gradientUnits="objectBoundingBox"><stop offset="0" stop-color="#ffeadb"/><stop offset="0.99" stop-color="#b060f4"/></linearGradient><linearGradient id="bm" x1="0.033" y1="0.812" x2="0.996" y2="0.231" xlink:href="#bl"/><linearGradient id="bn" x1="1" y1="0.498" x2="0" y2="0.498" xlink:href="#bi"/><linearGradient id="bo" x1="1" y1="0.5" x2="0" y2="0.5" gradientUnits="objectBoundingBox"><stop offset="0" stop-color="#9d68c2"/><stop offset="1" stop-color="#aec2ff"/></linearGradient><linearGradient id="bp" x1="0.5" y1="1" x2="0.5" gradientUnits="objectBoundingBox"><stop offset="0" stop-color="#ccedff"/><stop offset="1" stop-color="#9d68c2"/></linearGradient><linearGradient id="bq" x1="0.5" y1="1" x2="0.5" y2="0" xlink:href="#bp"/><linearGradient id="br" x1="0.5" y1="1" x2="0.5" y2="0" xlink:href="#bp"/><linearGradient id="bt" x1="0.5" y1="1" x2="0.5" gradientUnits="objectBoundingBox"><stop offset="0" stop-color="#d93de3"/><stop offset="1" stop-color="#ff6dba"/></linearGradient><linearGradient id="bu" x1="0.498" y1="1" x2="0.498" gradientUnits="objectBoundingBox"><stop offset="0" stop-color="#a242ea"/><stop offset="1" stop-color="#fe117e"/></linearGradient><linearGradient id="bv" x1="0.566" y1="1.055" x2="0.452" y2="-0.06" gradientUnits="objectBoundingBox"><stop offset="0" stop-color="#067eff"/><stop offset="1" stop-color="#3e37a0"/></linearGradient><linearGradient id="bw" x1="0.5" y1="1" x2="0.5" gradientUnits="objectBoundingBox"><stop offset="0" stop-color="#459fff"/><stop offset="1" stop-color="#a96dff"/></linearGradient><linearGradient id="bx" x1="0.499" y1="0.998" x2="0.499" y2="0" xlink:href="#bw"/><linearGradient id="by" x1="0.5" y1="1" x2="0.5" gradientUnits="objectBoundingBox"><stop offset="0" stop-color="#b31a8f"/><stop offset="1" stop-color="#fe117e"/></linearGradient><linearGradient id="ca" x1="0.5" y1="1" x2="0.5" gradientUnits="objectBoundingBox"><stop offset="0" stop-color="#8642a0"/><stop offset="1" stop-color="#6456c0"/></linearGradient><linearGradient id="cb" x1="0.5" y1="1" x2="0.5" y2="-0.002" xlink:href="#ca"/><linearGradient id="cc" x1="0.5" y1="1" x2="0.5" y2="-0.001" gradientUnits="objectBoundingBox"><stop offset="0" stop-color="#d906e3"/><stop offset="1" stop-color="#ff6df9"/></linearGradient><linearGradient id="cd" x1="0.5" y1="1" x2="0.5" y2="0" xlink:href="#cc"/><linearGradient id="ce" x1="-0.126" y1="0.032" x2="0.041" y2="-0.982" gradientUnits="objectBoundingBox"><stop offset="0" stop-color="#1852a0"/><stop offset="1" stop-color="#067ed3"/></linearGradient><linearGradient id="cf" x1="0.018" y1="0.095" x2="0.018" y2="-0.879" xlink:href="#ce"/><linearGradient id="cg" x1="1.043" y1="0.428" x2="1.151" y2="-0.222" gradientUnits="objectBoundingBox"><stop offset="0" stop-color="#188dc1"/><stop offset="1" stop-color="#06bfe7"/></linearGradient><linearGradient id="ch" x1="0.647" y1="1.113" x2="0.39" y2="-0.138" xlink:href="#cg"/><linearGradient id="ci" x1="1.939" y1="0.969" x2="-1.112" y2="0.036" xlink:href="#ce"/><linearGradient id="cj" x1="-0.885" y1="1.113" x2="-1.142" y2="-0.137" xlink:href="#cg"/><linearGradient id="ck" x1="-6.566" y1="0.969" x2="-9.614" y2="0.037" xlink:href="#ce"/></defs><g transform="translate(-219.034 103.321)"><path d="M175.761,196.684q0-.97-.944-.944l-17.569.524a12.614,12.614,0,0,0-4.432.813,7.578,7.578,0,0,0-2.911,1.94,7.394,7.394,0,0,0-1.547,2.989,12.823,12.823,0,0,0-.393,3.855l.131,4.851a14.265,14.265,0,0,0,.629,3.828,6.989,6.989,0,0,0,4.746,4.668,13.583,13.583,0,0,0,4.484.524l9.466-.288,1.967-5.559h.236l.184,5.48,6.634-.21Zm-6.136,16.6-11.249.341a3.645,3.645,0,0,1-2.622-.76,4.2,4.2,0,0,1-.891-2.937l-.131-3.933a4.432,4.432,0,0,1,.708-3.016,3.986,3.986,0,0,1,2.622-.865l10.751-.315a.393.393,0,0,1,.367,0,.472.472,0,0,1,0,.315Z" transform="translate(1041.754 276.348)" fill="#f1f1f4"/><path d="M180.048,206.228h.236l.21,7.027a.393.393,0,0,1-.42.472l-19.824.551.184,6.083,26.038-.839a.865.865,0,0,0,.918-1L186.735,197a.865.865,0,0,0-.97-.944l-25.2.787c-.629,0-.944.341-.918,1l.184,6.083,6.215,2.1h.262v-3.147c0-.236,0-.341.315-.341l13.294-.42a.472.472,0,0,1,.367,0,.708.708,0,0,1,0,.315v2.937l-10.935.315v4.772l9.178-.262Z" transform="translate(1000.127 276.847)" fill="#f1f1f4"/><path d="M177.276,205.086h.262v-2.622c0-.262,0-.393.367-.393l12.377-.367a1.1,1.1,0,0,1,.944.262,1.206,1.206,0,0,1,.288.813v.577a1.206,1.206,0,0,1-.184.892,1.992,1.992,0,0,1-.865.315l-14.5,2.465a9.52,9.52,0,0,0-2.334.682,4.589,4.589,0,0,0-1.547,1.1,3.513,3.513,0,0,0-.813,1.652,8.756,8.756,0,0,0-.21,2.307v1.862a8.179,8.179,0,0,0,.42,2.622,4.667,4.667,0,0,0,1.206,1.835,5.244,5.244,0,0,0,2.176,1.075,11.984,11.984,0,0,0,3.252.288l20.977-.629-.184-6.083-18.7.551c-.577,0-.944,0-1.128-.262a1.731,1.731,0,0,1-.315-1.075v-.629a1.128,1.128,0,0,1,.184-.865,1.233,1.233,0,0,1,.787-.341l14-2.2a10.28,10.28,0,0,0,2.412-.656,4.3,4.3,0,0,0,1.626-1.075,3.828,3.828,0,0,0,.891-1.6,7.236,7.236,0,0,0,.21-2.229V201.7a5.428,5.428,0,0,0-1.495-3.907,6.162,6.162,0,0,0-4.536-1.259l-20.978.629a.918.918,0,0,0-.97,1.075l.157,4.825Z" transform="translate(958.952 277.57)" fill="#f1f1f4"/><path d="M189.912,220.222,189.2,196.78l-6.634.21.708,23.442Z" transform="translate(937.505 278.036)" fill="#f1f1f4"/><path d="M193.164,210.78a7.712,7.712,0,0,1,0-1.1V208.42l-6.555.184.341,11.511c0,.6.288.892.839.892l17.647-.551a13.53,13.53,0,0,0,4.431-.787,7.106,7.106,0,0,0,4.458-4.956,13.713,13.713,0,0,0,.393-3.855l-.157-4.825a12.639,12.639,0,0,0-.629-3.855,6.87,6.87,0,0,0-1.731-2.858,7.342,7.342,0,0,0-3.015-1.783,12.771,12.771,0,0,0-4.458-.524l-17.569.524c-.629,0-.918.341-.892,1l.131,5.061,6.241,2.072h.262v-2.255c0-.21,0-.315.288-.315l11.2-.341a5.978,5.978,0,0,1,1.626,0,2.228,2.228,0,0,1,1.1.577,2.622,2.622,0,0,1,.655,1.128,6.846,6.846,0,0,1,.236,1.783l.131,4.143a4.2,4.2,0,0,1-.708,2.989,3.7,3.7,0,0,1-2.622.918l-11.118.315c-.236,0-.367,0-.367-.367Z" transform="translate(902.997 278.379)" fill="#f1f1f4"/><path d="M215.954,197.549a1.521,1.521,0,0,0-1.6.97l-8.365,17.123a.761.761,0,0,1-.6.419h-.367a.446.446,0,0,1-.524-.5l-.524-17.647-6.031.184.682,22.525a.79.79,0,0,0,.918.892l9.545-.288a1.939,1.939,0,0,0,1-.21,1.888,1.888,0,0,0,.629-.76l8.679-17.1a.682.682,0,0,1,.6-.42h.341a.463.463,0,0,1,.524.5l.524,17.621,6.031-.184-.682-22.5a.807.807,0,0,0-.918-.918Z" transform="translate(859.701 278.814)" fill="#f1f1f4"/><circle cx="406.493" cy="406.493" r="406.493" transform="translate(900.653 1046.414) rotate(-135)" fill="#e0f3ff"/><path d="M177.54,200.631a62.461,62.461,0,0,1,27.69-24.281l6.162,2.858-13.9,25.2a27.087,27.087,0,0,0,8.5,15h0a27.113,27.113,0,0,0,16.966-3.094l10.489-26.825,6.188,2.884a62.408,62.408,0,0,1-.892,36.711s-2.622,6.057-3.068,6.608c-2.465,2.832-8.811,6.136-21.135,5.375l-42.558,81.209a22.236,22.236,0,1,1-22.97-10.725l34.875-84.565c-8.286-8.758-10.043-15.733-9.414-19.64a71.59,71.59,0,0,1,3.068-6.713ZM142.613,340.42l11.249,5.244,10.174-7.106-1.075-12.377-11.249-5.244-10.174,7.106Z" transform="translate(1021.908 244.895)" fill="url(#a)"/><path d="M178.639,203.168A62.277,62.277,0,0,1,206.3,178.86l6.162,2.884-13.871,25.173a26.8,26.8,0,0,0,8.5,15h0a27.009,27.009,0,0,0,16.966-3.12L234.544,192l6.162,2.884a62.512,62.512,0,0,1-.865,36.711s-9.623,12.875-24.2,11.957l-42.506,81.078a22.21,22.21,0,1,1-22.97-10.751l34.9-84.539C174.916,218.8,178.639,203.168,178.639,203.168ZM143.685,342.956l11.249,5.244,10.174-7.106-1.075-12.377-11.249-5.244-10.174,7.132Z" transform="translate(1017.741 248.966)" fill="url(#b)"/><rect width="6.791" height="7.29" transform="translate(1258.375 443.848) rotate(-154.96)" fill="#e5e2ff"/><rect width="6.791" height="7.29" transform="translate(1230.228 430.748) rotate(-154.96)" fill="#e5e2ff"/><rect width="12.429" height="7.29" transform="translate(1172.685 597.209) rotate(-154.96)" fill="#e5e2ff"/><path d="M193.83,211.732l-34.324,65.922a16.729,16.729,0,0,1-13.845-6.477l27.926-68.937A26.458,26.458,0,0,1,193.83,211.732Zm-45.469,60.022a20.187,20.187,0,0,0,4.432,2.911,17.044,17.044,0,0,0,4.746,1.416l34.351-64.611a36.056,36.056,0,0,0-8.26-5.428,28.846,28.846,0,0,0-8.5-2.491Z" transform="translate(1030.372 286.893)" fill="url(#c)"/><path d="M161.342,229.091l-2.622-.551a14.789,14.789,0,0,0,13.845,6.477l-2.019-1.6A18.7,18.7,0,0,1,161.342,229.091Z" transform="translate(1017.391 329.556)" fill="#e5e2ff"/><path d="M165.9,211.684l-1.993-.262a31.886,31.886,0,0,0-16.756-7.867l-1.495-1.285a25.907,25.907,0,0,1,20.243,9.466Z" transform="translate(1058.298 286.941)" opacity="0.62" fill="url(#d)" style="mix-blend-mode:multiply;isolation:isolate"/><path d="M177.222,212.352a75.859,75.859,0,0,1-30.575-14.212l-4.458,10.8s5.061-5.008,16.153-.472c12.98,5.244,12.272,15.733,12.272,15.733Z" transform="translate(1056.078 280.242)" opacity="0.62" fill="url(#e)" style="mix-blend-mode:multiply;isolation:isolate"/><path d="M183.414,203.7a13.111,13.111,0,0,1,6.765-2.334l-33.2,80.317-4.012-4.143Z" transform="translate(1014.855 285.482)" opacity="0.5" fill="url(#f)" style="mix-blend-mode:screen;isolation:isolate"/><path d="M161.858,202.26s3.461,10.725-6.529,15.733Z" transform="translate(1036.41 286.925)" fill="#fff"/><path d="M214.368,544.7H337.61c12.9-71.638,42.9-164.857,42.9-164.857,7.29-4.327,21.528,1,21.528,1L447.086,544.7h112.6c5.979-101.111-49.349-215.884-49.349-215.884h0a12.4,12.4,0,0,0,1.468-6.267,14.894,14.894,0,0,0-4.2-4.877c-3.042-2.78-6.66-5.559-6.66-5.559L290.883,310.8s-2.124,1.075-4.825,2.622h0c-4.589,2.78-10.8,7.08-10.8,10.227a14.344,14.344,0,0,0,2.124,7.867v.131C232.435,416.605,214.368,544.7,214.368,544.7Z" transform="translate(483.903 462.997)" fill="url(#g)"/><ellipse cx="121.433" cy="46.99" rx="121.433" ry="46.99" transform="matrix(-0.225, -0.974, 0.974, -0.225, 966.577, 1052.418)" opacity="0.5" fill="url(#h)" style="mix-blend-mode:screen;isolation:isolate"/><ellipse cx="46.99" cy="121.434" rx="46.99" ry="121.434" transform="translate(779.424 1052.079) rotate(-164.35)" opacity="0.5" fill="url(#i)" style="mix-blend-mode:screen;isolation:isolate"/><path d="M311.478,501.743l1.285-.21c-14.317-84.434-50.713-155.26-51.054-155.968l-.157-.184-9.283-8.1-.839,1,9.151,8.024C262.233,349.657,297.449,419.171,311.478,501.743Z" transform="translate(634.091 505.953)" fill="url(#j)"/><path d="M283.985,501.743c14.055-82.73,50.241-152.978,51.867-156.125l8.207-7.342-.892-1-8.417,7.631c-.393.708-37.733,72.189-52.05,156.623Z" transform="translate(520.799 505.953)" fill="url(#k)"/><path d="M231.364,323.7a14.344,14.344,0,0,0,2.124,7.866v.131c43.738,9.886,77.014,50.713,77.014,50.713C286.745,428.038,247.1,544.7,247.1,544.7h46.6c12.9-71.638,42.9-164.857,42.9-164.857,7.29-4.327,21.528,1,21.528,1L403.17,544.7h29.159c-10.489-68.649-41.247-152.454-41.247-152.454,30.286-35.268,75.335-63.431,75.335-63.431h0l5.244-3.356-3.881-2.911c-19.483,18.7-82.31,43.109-84.251,43.869l80.055-48.746c-3.042-2.78-6.66-5.559-6.66-5.559L246.861,310.8s-2.124,1.075-4.825,2.622l57.373,31.466Z" transform="translate(527.819 462.997)" opacity="0.76" fill="url(#l)" style="mix-blend-mode:multiply;isolation:isolate"/><path d="M307.387,346.977,282.87,331.06l5.821,15.917,4.274,47.881Z" transform="translate(557.024 495.863)" opacity="0.76" fill="url(#m)" style="mix-blend-mode:multiply;isolation:isolate"/><path d="M244.07,361.681l25.54-14.448,54.672-24.622-69.619,46.019-4.143,16.494Z" transform="translate(641.87 482.155)" opacity="0.76" fill="url(#n)" style="mix-blend-mode:multiply;isolation:isolate"/><path d="M265.384,195.282c-.157,1.128-.288,1.731-.288,1.731a150.175,150.175,0,0,0,4.353,14.842,120.622,120.622,0,0,0,16.336,31.781,62.545,62.545,0,0,0,7.132,8.338c38.258-12.01,57.111-49.428,64.348-68.177a.947.947,0,0,0,0-.288c1.39-3.514,2.308-6.346,2.885-8.181h0c.446-1.468.656-2.281.656-2.281l-.472-.97v-.131c-.629-1.311-1.259-2.622-1.836-3.933a186.6,186.6,0,0,1-10.489-29.29c-1.862-6.87-2.858-12.167-3.33-14.973-.236-1.442-.341-2.229-.341-2.229l-17.831,9.414L265.07,163.449a101.079,101.079,0,0,1,1.311,15.576c0,3.278,0,6.215-.236,8.706-.184,3.042-.5,5.454-.734,7.027h0A1.782,1.782,0,0,1,265.384,195.282Z" transform="translate(550.281 155.95)" fill="#fe9083"/><path d="M283.4,224.636a52.706,52.706,0,0,0,12.691,9.282l.315.184.367-.21h0c1.337-.813,5.9-3.619,12.036-8.234,16.048-12.088,42.846-36.527,50.5-69.462h0a81.653,81.653,0,0,0,1.836-12.036h0c0-1.075.157-2.15.184-3.252a168.949,168.949,0,0,1-14.553,26.012c-10.856,15.89-27.14,33.223-46.6,33.328-16.834,0-25.461-11.406-29.84-22.026a60.1,60.1,0,0,1-3.54-12.062c-.184-.944-.315-1.783-.446-2.491h0a2.3,2.3,0,0,0-.131-.97c-.157-1.18-.21-1.862-.21-1.862S259.8,200.853,283.4,224.636Z" transform="translate(549.2 187.404)" fill="url(#o)"/><path d="M283.376,224.62a52.706,52.706,0,0,0,12.691,9.282h.708c1.337-.813,5.9-3.619,12.036-8.234,16.048-12.088,42.846-36.527,50.5-69.462h0a81.659,81.659,0,0,0,1.836-12.036h0c0-1.075.157-2.15.184-3.252a168.948,168.948,0,0,1-14.553,26.012s-10.489,29.106-33.511,43.528c-11.485,7.211-20.191,6.162-26.589,1.914a39.569,39.569,0,0,1-12.98-17.149,40.332,40.332,0,0,1-3.356-14.632v-2.36a60.092,60.092,0,0,1-3.54-12.062c-.184-.944-.315-1.783-.446-2.491h0a2.3,2.3,0,0,0-.131-.97c-.157-1.18-.21-1.862-.21-1.862S259.776,200.837,283.376,224.62Z" transform="translate(549.229 187.421)" opacity="0.5" fill="url(#p)" style="mix-blend-mode:multiply;isolation:isolate"/><path d="M206.376,465.07l.42.21c2.15.262,8.837-1.206,17.595-8.784h0c7.342-6.424,16.153-17.149,24.937-34.718,17.569-35.111,22.6-58.553,23.416-62.644V358.5L283,374.762c6.949,20.977,20.112,107.378,19.876,111.1s-11.669,21.869-11.433,24.1h0c.315,2.255,5.454,7.211,6.923,12.613,1,3.592-5.979,14.92-10.882,23.39h0a34.427,34.427,0,0,0-4.51,9.387c0,3.96,12.429,23.338,12.429,23.338v10.489l.184.184.577.524.472.393c4.72,3.724,24.727,15.917,87.24,19.273,74.077,3.96,123.426-19.876,123.426-19.876l-3.723-10.2s3.461-2.963,3.723-4.458-2.622-4.982-2.622-4.982,7.447-3.96,7.447-8.942S497.2,540.746,497.7,527.557s11.931-24.832,13.426-32.279-19.378-25.829-19.378-25.829c17.883-56.639,21.371-132.656,21.371-132.656l3.7-4.222s21.371,48.694,40.749,72.53c2.307,2.832,4.746,5.638,7.263,8.339a212.41,212.41,0,0,0,16.677,16.126c13.426,11.695,25.619,19.378,28.713,18.775,4.982-1,24.858-40.251,23.941-80.5-.42-19.142-11.957-40.565-23.941-57.688-1.285-1.836-2.622-3.645-3.881-5.4a275.022,275.022,0,0,0-20.558-24.78c-1.521-1.626-2.386-2.491-2.386-2.491s2.622-8.784,4.589-16.415a4.2,4.2,0,0,1,.131-.551.943.943,0,0,1,0-.262.81.81,0,0,1,0-.184c1.1-4.694,1.783-8.758,1.154-9.755-1.652-2.622-11.275-5.638-12.927-7.6s-8.6-35.452-13.9-39.1-14.029-6.031-43.843-17.752l-4.536-1.783c-33.433-13.242-66.236-29.316-66.236-29.316L435.241,139.29h-5.612l1.836,3.933v.131c-.892,3.986-1.914,7.867-3.068,11.459a.94.94,0,0,1,0,.288c-17.175,54.594-61.753,72.189-61.753,72.189-30.942-22.839-30.339-59.1-30.339-59.1V163.2l-5.8,1.731-3.959,9.44s-6.713,10.489-33.3,22.131a158.178,158.178,0,0,0-14.606,7.473c-24.334,13.819-51.395,35.19-53.466,39.726a14.711,14.711,0,0,0-.708,2.255h0c-2.858,11.223-8.732,53.257-14.186,68.177a34.351,34.351,0,0,1-12.744,17.2h0a19.952,19.952,0,0,1-5.087,2.622q-.629,3.461-1.18,6.844C179.814,412.862,201.447,461.661,206.376,465.07Z" transform="translate(479.072 184.776)" fill="url(#q)"/><path d="M198.59,289.586,220.2,296.85l3.461-4.038s21.371,48.694,40.749,72.53c2.308,2.832,4.746,5.638,7.263,8.339a212.387,212.387,0,0,0,16.677,16.126l16.467-70.982,8.365-53.886a275.03,275.03,0,0,0-20.558-24.78c-1.521-1.626-2.386-2.491-2.386-2.491s2.622-8.784,4.589-16.415a4.2,4.2,0,0,1,.131-.551.944.944,0,0,1,0-.262.813.813,0,0,1,0-.184c1.1-4.694,1.783-8.758,1.154-9.755-1.652-2.622-11.275-5.638-12.927-7.6s-8.6-35.452-13.9-39.1c0,0,3.461,32.122-14.92,72.87l-8.942,12.587L219.2,270.234S209.42,283.529,198.59,289.586Z" transform="translate(772.23 224.536)" opacity="0.5" fill="url(#r)" style="mix-blend-mode:multiply;isolation:isolate"/><path d="M176.579,332.348c4.641,34.429,55.957,60.94,55.957,60.94,11.433,0,24.2-19.876,35.793-44.394s12.3-94.949,12.9-99.3,7.08-13.111,7.473-16.782-10.489-11.433-10.489-11.433v-.367c1.128-2.412,7.473-16.022,7.027-18.513s-12.639-8.679-12.639-8.679l-.76,13.4S243.575,201.973,234,179.973l-1.678-6.713-4.72,3.147v28.844s-.97,4.484-2.465,4.484-12.508-5.507-14.815-4.746-4.615,16.179-7.709,18.146-11.275,7.709-12.508,10.489a49.818,49.818,0,0,0-.656,10.882,111.171,111.171,0,0,1-1.075,18.2C186.831,270.307,171.937,297.892,176.579,332.348Z" transform="translate(856.754 239.882)" fill="url(#s)"/><path d="M342.588,255.6c2.308,3.645,13.9,11.275,16.887,14.265s0,12.77,0,12.77a402.114,402.114,0,0,0,104.573,80.081l.42.21c30.575-20.558,27.952-54.41,17.8-82.94a215.277,215.277,0,0,0-27.061-50.818h0a64,64,0,0,0-15.523-4.3,9.414,9.414,0,0,0-5.743,1.783c-3.723,2.308-6.87,5.952-9.912,4.431-4.484-2.255-14.5-25.933-21.292-26.589-4.746-.446-11.328,4.379-15.733,7.132-1.914,1.206-3.409,2.019-4.143,1.809-2.622-.656-10.935-10.777-11.616-11.039s-4.51,2.622-4.51,2.622l2.622,3.356a91.775,91.775,0,0,1-17.752,39.779l-9.1-13.321S340.254,251.96,342.588,255.6Z" transform="translate(221.4 287.126)" fill="url(#t)"/><path d="M270.055,192.848a2.749,2.749,0,0,0,.131,1.023,20.254,20.254,0,0,0,.5,2.1h0c3.12,11.564,15.733,23.39,31.65,17.7,17.385-6.215,50.477-76.306,50.477-76.306l-3.33-14.973-78.665,63.981-.865,6.057Z" transform="translate(545.479 157.362)" fill="#cb4d7a"/><path d="M173.368,199.186s4.8-26.51,2.622-46.046a212.394,212.394,0,0,1,.551-41.745,10.777,10.777,0,0,1,8.234,0c3.487,1.993,11.59,22.21,7.866,38.441S191.8,204.9,191.8,204.9h5.48l11.931-16.389,5.8-1.678s33.354,31.466,32.856,50.189l-4.353,16.651-41.09-1.416L175.7,221.816Z" transform="translate(903.677 138.201)" fill="#ee8183"/><path d="M175.5,139.69a212.988,212.988,0,0,1-5.612,38.756,9.283,9.283,0,0,0,9.361,7.867l2.1-2.36s1.495,8.312,9.073,8.942l7.211-7.211-1.862,5.952a10.2,10.2,0,0,0,9.44,6.11s11.433-8.942,12.167-20.637l-11.3-9.545v-7.342l-13.4-9.44-.262-5.244A31.676,31.676,0,0,0,175.5,139.69Z" transform="translate(943.288 185.425)" fill="url(#u)"/><path d="M185.07,124.67a18.8,18.8,0,0,0,4.877,7.106,41.563,41.563,0,0,0,11.118,3.514l.367,46.832h5.48l11.931-16.389s-6.057,9.335-6.424,16.389l4.72,2.308,4.091-14.029,1.94,10.1-1.914,12.586a33.092,33.092,0,0,0-19.876-6.346l-1.914,3.488s23.128,19.168,28.477,30.47c0,0-11.433-14.527-37.523-30.548l-2.465-7.683-3.3-18.355S187.9,137.571,185.07,124.67Z" transform="translate(894.021 161.06)" opacity="0.6" fill="url(#v)" style="mix-blend-mode:multiply;isolation:isolate"/><path d="M175.13,198.009c2.15,6.451,24.675,33.275,27.166,39.1a78.665,78.665,0,0,1,3.986,13.4c11.066,24.072,37.943,27.244,37.943,27.244l1.232-21.607s14.4-8.286,16.834-12.822h0l.288-.76a180.414,180.414,0,0,0,0-19.876l-25.2-10.2c-10.935-14.16-37.523-30.548-37.523-30.548l-1.232-7.421c19.09-9.387,15.89-37.786,12.665-41.273a14.16,14.16,0,0,0-9.178-3.461s-6.975,22.839-11.433,33.538S172.98,191.559,175.13,198.009Z" transform="translate(884.687 169.35)" fill="url(#w)"/><path d="M190.356,141.87s-2.806,26.091-11.066,38.52a60.809,60.809,0,0,0,11.328-33.171Z" transform="translate(945.4 188.962)" fill="#e28183"/><path d="M189.913,147.51s-2.622,20.977-15.733,32.672c0,0,11.459-5.716,15.733-25.33Z" transform="translate(959.504 198.111)" fill="#e28183"/><path d="M181.57,168.59s28.4,27.585,46.544,24.6l-1.232,21.607A47.934,47.934,0,0,1,187.365,180.7,82.728,82.728,0,0,0,181.57,168.59Z" transform="translate(901.925 232.306)" opacity="0.91" fill="url(#x)" style="mix-blend-mode:multiply;isolation:isolate"/><path d="M369.632,244.118s26.091,47.7,56.639,62.356H436.76L460.858,343s15.576-9.781,16.729-41.955a29.29,29.29,0,0,1-6.844-12.062s8.6-6.765,10.935-11.721,3.147-19.876,4.8-26.012,15.733-18.88,18.88-20.532,17.385-2.491,17.385-2.491,1.993-5.244,0-7.6-24.176-11.118-36.265-2.832a54.47,54.47,0,0,1-2.15,9.623c-1.337,3.3-11.931,15.051-13.583,15.051s-8.784-5.952-11.931-10.489a468.2,468.2,0,0,1-22.918-50.661,1.3,1.3,0,0,0,0-.341,3.064,3.064,0,0,0-.157-.524,2.434,2.434,0,0,1,0-.341s0,0,0-.131c-2.989-10.1-20.374-29.473-29.657-34.77a5.48,5.48,0,0,0-6.11,3.959s7.447,21.214,15.235,33.8c1.311,2.124,2.622,4.615,4.2,7.29h0c6.634,12.193,14.107,28.162,15.182,30.5l.131.288-4.143,2.124-11.2-10.62L407.89,201.665l-26.353,27.821,2.622,3.3,8.234,10.489-4.169.76-9.7-10.725Z" transform="translate(113.278 194.276)" fill="url(#y)"/><path d="M389.8,231.824l8.339,12.246s45.679-35.216,55.617-38.284,13.583-1,13.583-1L477.591,217.9s-18.88,16.73-20.532,39.333c0,0,6.293-28.477,27.664-37.1-1.652,0-8.784-5.952-11.931-10.489a468.225,468.225,0,0,1-22.918-50.661,13.11,13.11,0,0,1-.42,8.942c-2.255,4.169-15.523.236-16.31,0h0l15.209,30.5.131.288-4.143,2.124-11.2-10.62,5.611,13.111L397.9,210.532l8.234,10.489-4.169.76Z" transform="translate(99.299 216.717)" opacity="0.6" fill="url(#z)" style="mix-blend-mode:multiply;isolation:isolate"/><path d="M433.612,166.684s-7.867-1.154-13.111,9.125l1.154,3.3s-7.867,1.521-15.235,14.081a42.454,42.454,0,0,0,23.023,17.542s7.6-2.15,8.942-8.6l-1.495-4.143,5.952,4.484s7.132,2.15,10.279-8.47Z" transform="translate(87.32 229.152)" fill="url(#aa)"/><path d="M420.934,189.416a12.245,12.245,0,0,1,6.45-12.586l15.733,17.385a8.1,8.1,0,0,1-7.29,6.791S425.077,197.362,420.934,189.416Z" transform="translate(59.59 245.673)" fill="url(#ab)"/><path d="M430.6,195.53a116.581,116.581,0,0,1-44.97,29.211L397.167,242.2l24.045-30.548-1.547-4.405S429.289,200.014,430.6,195.53Z" transform="translate(164.356 276.008)" opacity="0.91" fill="url(#x)" style="mix-blend-mode:multiply;isolation:isolate"/><path d="M415.544,171.4s7.6,12.586,15.235,18.88l1.495,4.143s-14.789-9.991-20.243-21.5a9.361,9.361,0,0,1,3.514-1.521Z" transform="translate(93.457 236.865)" fill="#e28183"/><path d="M326.788,293.359c2.308,3.645,13.9,11.275,16.887,14.265s0,12.77,0,12.77a402.113,402.113,0,0,0,104.573,80.081l.42.21c3.986.5,23.364-4.956,42.742-43.712,17.569-35.111,22.6-58.553,23.416-62.644V293.7l-4.274-5.8L504.2,216.371l-4.458,14.4c-16.887-20.374-32.8-51.657-32.8-51.657l-.708,2.255h0c-2.858,11.223-8.732,53.257-14.186,68.177a34.35,34.35,0,0,1-12.744,17.2h0c15.55,14.186,23.259,34.587,27.061,50.818a140.763,140.763,0,0,1,3.723,26.222,176.814,176.814,0,0,0-17.883-44.577A95.71,95.71,0,0,0,432.986,276a154.318,154.318,0,0,0-15-12.01c-3.724,2.308-6.87,5.952-9.912,4.431,20.453,30.706,19.955,91.488.734,79.9s-23.6-36.186-23.6-36.186c4.536-29.972,3.2-63.771-.446-70.2-4.431,0-17.1,9.047-17.831,8.837a103.839,103.839,0,0,1-15.392,59.157l-10.935-16.913a104.888,104.888,0,0,0,14.737-52.942c-.655-.288-4.51,2.622-4.51,2.622l2.622,3.356a91.777,91.777,0,0,1-17.647,39.857l-9.1-13.321S324.454,289.714,326.788,293.359Z" transform="translate(237.2 249.372)" opacity="0.5" fill="url(#ad)" style="mix-blend-mode:multiply;isolation:isolate"/><path d="M175.69,521.571V532.06l.184.184.577.525.472.393c4.72,3.724,24.727,15.917,87.24,19.273,74.077,3.96,123.426-19.876,123.426-19.876l-3.723-10.2s3.461-2.963,3.723-4.458-2.622-4.982-2.622-4.982,7.447-3.96,7.447-8.942c0-4.484-12.167-17.464-14.134-29.657a17.718,17.718,0,0,1-.288-3.881c.5-13.111,11.826-24.727,13.4-32.174h0c1.495-7.447-19.378-25.828-19.378-25.828C389.9,355.8,393.384,279.779,393.384,279.779l3.278-4.2s21.371,48.694,40.749,72.53,47.7,44.289,52.653,43.292c11.433,0,24.2-19.876,35.793-44.394s12.3-94.949,12.9-99.3,7.08-13.111,7.473-16.782C533.8,252.3,514,246.006,514,246.006c14.343.315,21.79-26.51,21.79-26.51v-.367l7-18.486c-.787.892-17.175,19.221-33.013,7.867-16.231-11.59-24.6-34.088-24.6-34.088v28.844s-.97,4.484-2.465,4.484a351.763,351.763,0,0,0,7.185,45.338c7.368,34.429,17.464,67.679,17.464,67.679s-27.376-14.894-37-52.653a159.272,159.272,0,0,1-4.9-45.206A113.335,113.335,0,0,1,467.67,204a4.192,4.192,0,0,1,.131-.551.945.945,0,0,1,0-.262h0l-2.622,5.611-5.035,12.482c-5.847,48.458,6.215,121.486,6.215,121.486-17.569-21.869-21.213-70.222-20.453-81.969.341-5.612.787-12.534,1.075-18.2.393-6.188.656-10.882.656-10.882l-35.95,21.449,6.634-20.977L392.1,253.164s-23.6,28.32-47.7,31.624-112.938,1.337-112.938,1.337,77.171,4.956,99.643,11.59,26.825,14.238,26.825,14.238c-16.284,82.835-106.408,110.761-109.214,111.6,81.76-12.272,119.808-81.786,119.808-81.786s1.337,39.1-4.956,53.991-43.4,51.342-91.095,58.947a109.833,109.833,0,0,1-11.878,1.206c-40.224,1.888-73.421-18.67-76.935-20.977l-.288-.184h0c1.285,1.967,17.778,25.147,84.382,27.69,4.038.157,7.867.131,11.8,0h0c61.726-2.622,93.166-43.712,93.166-43.712S395.56,431,380.981,449.2l-.472.577c-4.3,4.956-13.766,11.013-24.963,17.254l-.918.525c-13.53,7.473-29.395,15.182-41.666,21.554h-.184a155.291,155.291,0,0,0-17.1,9.781h0c-3.461,2.622-4.169,4.143-.787,4.536,17.228,1.993,82.468-12.246,85.116-8.286s-3.225,14.238-3.225,14.238c-59.891,29.683-188.037,15.051-192.075,14.606,107.667,27.717,195.51-7.159,195.51-7.159L377.31,527.1a383.7,383.7,0,0,1-104.074,17.883C216.911,546.3,181.8,531.876,181.8,531.876Z" transform="translate(599.227 241.764)" opacity="0.5" fill="url(#ae)" style="mix-blend-mode:multiply;isolation:isolate"/><path d="M371.109,216.87s-42.637,2.334-70.8,9.781l14.5,22.026A193.436,193.436,0,0,1,371.109,216.87Z" transform="translate(447.572 310.625)" opacity="0.5" fill="url(#af)" style="mix-blend-mode:multiply;isolation:isolate"/><path d="M275.8,261.71s26.615,22.21,52.785,32.463a176.576,176.576,0,0,0,51.342,11.275s-15.051,4.458-52.05-1.495-49.822-26.012-49.822-26.012Z" transform="translate(503.024 383.364)" opacity="0.5" fill="url(#ag)" style="mix-blend-mode:multiply;isolation:isolate"/><path d="M277.639,316.674h0c49.245,12.718,111.757-5.533,111.233-7.866s-17.123,1-55.616-6.713c-37.314-7.473-50.844-20.741-51.657-21.554.315,2.255,5.454,7.211,6.923,12.613C289.517,296.876,282.542,308.2,277.639,316.674Z" transform="translate(489.254 413.91)" opacity="0.5" fill="url(#ah)" style="mix-blend-mode:multiply;isolation:isolate"/><path d="M213.21,257.038c41.955,4.274,53.388,16,53.388,16,11.826,1.495,38.389-28.844,38.389-28.844l3.461-3.986s21.371,48.694,40.749,72.53c2.307,2.832,4.746,5.638,7.263,8.339l-2.753-6.188s-4.51-2.15-5.821-25.829,9.938-58.947,10.017-63.745,1.731-29.08,1.731-29.08l-35.95,21.449,6.634-20.977-26.222,20.977s-10.253,15.418-36.134,28.267C243.6,258.14,216.226,257.17,213.21,257.038Z" transform="translate(687.44 277.144)" opacity="0.5" fill="url(#ai)" style="mix-blend-mode:multiply;isolation:isolate"/><path d="M296.895,215.028l-25.068-3.278a188.461,188.461,0,0,1-30.1,14.815l16.756,24.727s-6.66,35.242-25.75,55.066c0,0,50.661-28.136,57.688-51.788Z" transform="translate(698.993 302.32)" opacity="0.5" fill="url(#aj)" style="mix-blend-mode:multiply;isolation:isolate"/><path d="M234.549,200.593l-7.159,18.854s-7.29,25.435-21.79,26.51-28.66-42.663-28.66-42.663V174.45s15.418,33.04,32.069,36.711S234.549,200.593,234.549,200.593Z" transform="translate(907.63 241.813)" opacity="0.5" fill="url(#ak)" style="mix-blend-mode:multiply;isolation:isolate"/><path d="M238.844,202.917S225.917,228.745,210,236.69c0,0,18.906-45.888,14.92-72.87C224.973,163.82,231.921,168.147,238.844,202.917Z" transform="translate(816.646 224.569)" opacity="0.5" fill="url(#al)" style="mix-blend-mode:multiply;isolation:isolate"/><path d="M334.7,193.32l-4.458,14.4-4.51,118.129a286.044,286.044,0,0,0,19.483-54.568l-4.169-6.424S334.016,220.328,334.7,193.32Z" transform="translate(406.812 272.423)" opacity="0.76" fill="url(#am)" style="mix-blend-mode:multiply;isolation:isolate"/><path d="M404.9,206.58s2.622,58.029-22.131,62.932l-1.232,6.346S413.447,274.652,404.9,206.58Z" transform="translate(199.34 293.933)" opacity="0.5" fill="url(#an)" style="mix-blend-mode:multiply;isolation:isolate"/><path d="M346.23,216.052s.944,2.072,9.912-4.431c0,0,31.02,21.974,42.978,52.942,0,0-19.116-28.451-29.29-31.466s-12.639,8.286-12.639,8.286S353.153,225.308,346.23,216.052Z" transform="translate(299.151 302.109)" opacity="0.3" fill="url(#ao)" style="mix-blend-mode:multiply;isolation:isolate"/><path d="M209.964,196s-11.931,22-34.3,15.1c0,0,13.4,9.02,26.825,1.678C202.491,212.7,210.829,198.412,209.964,196Z" transform="translate(935.493 276.771)" opacity="0.5" fill="url(#ap)" style="mix-blend-mode:multiply;isolation:isolate"/><path d="M204.686,185.35s-16.415,61.359,26.405,107.51A71.166,71.166,0,0,1,197,245.529a101.609,101.609,0,0,1,7.683-60.179Z" transform="translate(862.604 259.494)" opacity="0.5" fill="url(#aq)" style="mix-blend-mode:multiply;isolation:isolate"/><path d="M299.215,166.65s1.836,27.69,15.13,47.566,39.595,33.276,39.595,33.276-33.039-12.167-48.2-29.29S299.215,166.65,299.215,166.65Z" transform="translate(474.023 229.159)" opacity="0.5" fill="url(#ar)" style="mix-blend-mode:multiply;isolation:isolate"/><path d="M330.481,150.76a175.224,175.224,0,0,1-7.368,46.754c-7.447,23.6-72.136,64.847-72.136,64.847s66.656-27.716,79.583-52.6S330.481,150.76,330.481,150.76Z" transform="translate(611.757 203.383)" opacity="0.5" fill="url(#as)" style="mix-blend-mode:multiply;isolation:isolate"/><path d="M259,174.294c2.045,24.386,9.466,41.378,17.385,52.837,10.908,15.733,22.708,21.109,22.708,21.109a136.356,136.356,0,0,0,30.837-18.591,157.332,157.332,0,0,0,50.451-74.732c-15.733,38.126-38.966,61.228-56.534,74.234a113.49,113.49,0,0,1-24.675,14.474V231.431a81.029,81.029,0,0,0,8.129-3.566c30.942-15.6,47.2-48.117,54.8-69.147h0a149.483,149.483,0,0,0,5.716-19.378h-5.611l1.836,3.933v.131c-.892,3.986-1.914,7.867-3.068,11.459a.943.943,0,0,1,0,.288c-17.306,54.463-61.883,72.058-61.883,72.058-30.942-22.839-30.339-59.1-30.339-59.1v-4.982l-5.795,1.731Z" transform="translate(546.622 184.858)" opacity="0.5" fill="url(#at)" style="mix-blend-mode:multiply;isolation:isolate"/><path d="M391.642,203.21s8.417,27.454.446,70.2c0,0-3.959-54.148-6.949-58.868s-11.328-2.491-11.328-2.491a189.179,189.179,0,0,1,17.831-8.837Z" transform="translate(230.427 288.466)" opacity="0.3" fill="url(#au)" style="mix-blend-mode:multiply;isolation:isolate"/><path d="M352.922,391.69c7.342-6.424,16.153-17.149,24.937-34.718,17.569-35.111,22.6-58.553,23.416-62.644l-4.169-6.424-5.585-54.017-5.244-3.12a221,221,0,0,1-32.908-51.657,14.708,14.708,0,0,0-.708,2.255h0c-2.858,11.223-8.732,53.257-14.186,68.177a34.351,34.351,0,0,1-12.744,17.2s32.279,47.881,33.852,82.048C361.1,380,354.181,390.117,352.922,391.69Z" transform="translate(350.75 249.372)" opacity="0.5" fill="url(#av)" style="mix-blend-mode:multiply;isolation:isolate"/><path d="M234.83,335.943s58.186-9.545,81.943-24.858h0a17.725,17.725,0,0,1-.288-3.881c.5-13.111,11.826-24.727,13.4-32.174-.262.708-1.967,4.641-10.227,11.721a175.52,175.52,0,0,1-24.963,17.254l-.918.525c-16.782,9.912-31.23,16.625-41.667,21.554h-.184c-9.387,4.405-15.471,7.316-17.1,9.781Z" transform="translate(660.497 404.972)" opacity="0.5" fill="url(#aw)" style="mix-blend-mode:multiply;isolation:isolate"/><path d="M277.64,280.59c.315,2.255,5.454,7.211,6.923,12.613,0,0,21.345,22.6,100.351,15.733-.524-2.229-17.123,1-55.616-6.713C291.983,294.776,278.453,281.4,277.64,280.59Z" transform="translate(493.212 413.991)" opacity="0.5" fill="url(#ax)" style="mix-blend-mode:multiply;isolation:isolate"/><path d="M232,232.845,282.5,249.1l14.789,6.87H320l8.129.656,4.3.315,12.246.97,6.162.5L411.41,236.49l10.856-3.828,49.821-18.041-4.536-1.783c-33.433-13.242-66.236-29.316-66.236-29.316l-12.586-15.471h-5.612a186.6,186.6,0,0,1-10.489-29.29l-3.33-14.973c-.236-1.442-.341-2.229-.341-2.229l-17.831,9.414L291,179.064c0,3.278,0,6.215-.236,8.706l-.865,6.057c-.157-1.18-.21-1.862-.21-1.862l-5.795,1.731-3.96,9.44s-6.713,10.489-33.3,22.131A158.168,158.168,0,0,0,232,232.846Z" transform="translate(525.715 156.015)" fill="#7a4ac0" opacity="0.5" style="mix-blend-mode:multiply;isolation:isolate"/><path d="M312.207,248.072c16.553,2.775,24.864-2.253,39.93-9.767,25.5-12.581,53.463-24.463,54.775-33.584s-9.753-33.443-9.753-52.419,9.084-51.318-6.176-68.879S305.5,63.242,282.725,85.756c0,0-7.051,18.032-7.051,28.228a75.575,75.575,0,0,0,1.081,10.248c.206,1.546.489,3.2.746,4.9,2.033,12.345,4.838,27.415,3.525,34.072a33.571,33.571,0,0,1-2.033,6.448h0c-2.8,6.6-6.974,11.873-7.72,17.587C270.3,194.787,282.279,224.9,312.207,248.072Z" transform="translate(487.971 71.664)" fill="url(#ay)"/><path d="M263.351,109.279s6.424-16.126,22.577-16.389c0,0,9.44,3.75,10.935,10.935,0,0-3.487,26.222-7.447,38.258s-18.565,10.489-18.565,10.489a61.857,61.857,0,0,1-7.5-43.292Z" transform="translate(621.697 109.507)" fill="url(#az)"/><path d="M352.673,120.672a14.815,14.815,0,0,0-7.709,1.311c-2.308,1.757-10.751,9.938-21.449,12.193s-17.831-6.87-20.112-7.342-4.772,2.753-4.772,2.753a8.967,8.967,0,0,1,6.529-5.4s2.255,8.575,17.752,5.638,22.053-9.807,22.053-9.807l.787-1.416a42.53,42.53,0,0,1,6.923,2.071Z" transform="translate(470.413 151.214)" fill="url(#ba)"/><path d="M364.814,118.113l-.21-1.652S349.16,89.348,318.611,88.613s-37.471,18.355-37.471,18.355l-5.69-8.548,12.9-26.222,89.784-1.468L400,88.351l2.753,43.187-9.728,57.006-23.6,12.586-6.66-5.9c2.465-19.089,16.651-36.527,16.651-36.527l-10.358-7.185s-26.563,12.849-41.955,8.994c0,0-11.564-33.7-10.882-58.684C316.225,101.829,355.584,107.65,364.814,118.113Z" transform="translate(481.111 73.56)" opacity="0.6" fill="url(#bb)" style="mix-blend-mode:multiply;isolation:isolate"/><path d="M340.637,102.975s-1.495-9.755-17.962-13.662C304.32,84.961,289.4,81.29,289.4,81.29s3.251,10.7,9.361,14.71c0,0,19.43-.708,29.264,1.547S340.637,102.975,340.637,102.975Z" transform="translate(506.652 90.69)" fill="#38368e"/><path d="M316.911,84.57s9.335,7.185,15.733,24.308c0,0-6.083-7.867-11.669-7.867a3.2,3.2,0,0,0-3.225,3.855A35.792,35.792,0,0,1,316.911,84.57Z" transform="translate(445.341 96.011)" fill="#38368e"/><path d="M320.725,116.069s-1-20.61-21.109-25.829a41.955,41.955,0,0,0-7.867,19.876S302.344,108.123,320.725,116.069Z" transform="translate(520.402 105.208)" fill="url(#bc)"/><path d="M330.585,117.122s-1.626-16.415-11.039-22.472c0,0-6.424,4.8-5.769,18.539C313.777,113.189,319.388,111.3,330.585,117.122Z" transform="translate(452.906 112.362)" fill="url(#bd)"/><path d="M319.835,103.952S313.306,112,295,113.575a28.659,28.659,0,0,1-3.147-15.733S308.691,96.269,319.835,103.952Z" transform="translate(521.292 117.325)" fill="#ffebed"/><path d="M330.171,105.837v2.412s-2.806,5.874-12.9,6.87a28.373,28.373,0,0,1-3.54-13.294S320.154,100.2,330.171,105.837Z" transform="translate(453.32 123.648)" fill="#ffebed"/><path d="M306.223,97.721a22.656,22.656,0,0,1,4.222,14.553,71.45,71.45,0,0,1-9.492,1.573,24.675,24.675,0,0,1-3.147-15.733A25.645,25.645,0,0,1,306.223,97.721Z" transform="translate(515.343 117.053)" fill="#7f9ec9"/><path d="M323.073,102.2s2.622,2.832,3.12,11.459a19.72,19.72,0,0,1-6.451,1.573,23.808,23.808,0,0,1-3.54-13.294,11.485,11.485,0,0,1,6.87.262Z" transform="translate(450.847 123.533)" fill="#7f9ec9"/><path d="M308.833,112.912s1.652-11.144-4.72-15.392l-5.244.656a22.525,22.525,0,0,0,3.147,15.733S307.234,113.279,308.833,112.912Z" transform="translate(514.253 117.018)" fill="#38368e"/><path d="M321.545,101.707a47.57,47.57,0,0,1,3.461,12.665,14.554,14.554,0,0,1-4.484.839,21.685,21.685,0,0,1-3.54-13.294A10.488,10.488,0,0,1,321.545,101.707Z" transform="translate(450.068 123.555)" fill="#38368e"/><path d="M324.658,104.384s-12.167-7.08-32.908-3.042l3.855-2.911A34.718,34.718,0,0,1,324.658,104.384Z" transform="translate(516.469 116.893)" fill="#131163"/><path d="M334.865,106.875a32.751,32.751,0,0,0-21.135-2.439l4.694-3.383S326.054,99.795,334.865,106.875Z" transform="translate(448.626 122.61)" fill="#131163"/><path d="M303.063,100.127a7.263,7.263,0,0,0-6.293,2.308,5.769,5.769,0,0,0,6.293-2.307Z" transform="translate(524.901 121.15)" fill="#fff"/><path d="M322.4,103.895s-5.244-1.023-6.975,1.364C315.43,105.258,318.288,107.146,322.4,103.895Z" transform="translate(456.629 127.006)" fill="#fff"/><path d="M317.226,100.55A47.7,47.7,0,0,1,292.6,112.219l-.393-5.507,1.39,2.334S308.153,108.1,317.226,100.55Z" transform="translate(522.695 121.933)" fill="#c6659c"/><path d="M327.732,104.14s-1.678,6.031-14,8.758l.393-2.937.708,1.049S323.589,109.883,327.732,104.14Z" transform="translate(455.759 127.757)" fill="#c6659c"/><path d="M340.539,113.666a43.713,43.713,0,0,0-13.111,0c-8.443,1-17.962,3.3-23.128,0,0,0,6.87,6.9,12.849,7.867s15.078-4.2,15.078-4.2h3.96A10.986,10.986,0,0,0,340.539,113.666Z" transform="translate(467.68 142.407)" fill="#cb5f7d"/><path d="M313.466,115.432a6.45,6.45,0,0,0-3.8-1c-1.731.341-3.514,2.858-3.514,2.858a17.332,17.332,0,0,1,7.316-1.862Z" transform="translate(489.902 144.443)" fill="#9f4a8b"/><path d="M308.774,127.759c-2.229-2.15,9.2-22.525,14.684-23.259s10.489,22.813,10.489,22.813-7.6,1.075-14.973,2.045S308.774,127.759,308.774,127.759Z" transform="translate(463.284 128.314)" fill="#ffbcaf"/><path d="M315.393,88.925c3.094-.393,14.029,12.9,14.029,12.9s6.949,21.528,5.585,27.9-18.355,9.781-18.355,9.781l-.708-1.128h0a33.144,33.144,0,0,0,2.072-6.451c1.337-6.608-1.521-21.685-3.592-34.088a25.353,25.353,0,0,1-.76-4.9C313.689,90.971,313.977,89.135,315.393,88.925Z" transform="translate(448.484 103.062)" opacity="0.6" fill="url(#be)" style="mix-blend-mode:multiply;isolation:isolate"/><path d="M399.741,176.917c.5-25.593-16.651-43.738-16.651-43.738,6.215-5.244,8.706-20.348,1.993-26.825s-18.146-4.956-46.2-1.993S310.8,105.62,310.8,105.62c-8.915,2.281-14.029,10.646-15.471,13.321-.288.524-.42.839-.42.839l-3.487-3.225a45.678,45.678,0,0,0-7.709,28.556s-15.392-31.309-13.635-35.74a118.987,118.987,0,0,1,12.639-20.977h0s2.491-23.836,9.938-23.836,39.333,7.185,39.333,7.185a45.152,45.152,0,0,1-2.989-17.621l.131.131c10.489,9.309,20.532,10.331,34.9,16.992A36.37,36.37,0,0,1,377.478,81l.97,1.154,1.023,1.232a42.989,42.989,0,0,0,3.251,3.855.865.865,0,0,0,.157.157h0a41.121,41.121,0,0,0,4.169,3.907c9.44,7.683,30.208,12.822,32.7,20.977s-3.147,19.194-6.136,30.627a62.225,62.225,0,0,0-1.6,21.528C405.754,173.645,399.269,201.539,399.741,176.917Z" transform="translate(477.966 46.615)" fill="url(#bf)"/><path d="M322.935,106.21s-10.7,13.294-9.676,18.355c1.1,5.48,13.5,8.391,13.5,8.391s-9.938-3.435-11.983-8.391a66.6,66.6,0,0,1,8.155-18.355Z" transform="translate(458.144 131.115)" fill="#d2726c"/><path d="M332.883,123.859A45.677,45.677,0,0,1,340.592,95.3a76.278,76.278,0,0,1-8.679-28.084h0a96.259,96.259,0,0,0-4.038,18.618l-8.6,2.255C317.491,92.55,332.883,123.859,332.883,123.859Z" transform="translate(428.739 67.866)" opacity="0.6" fill="url(#bg)" style="mix-blend-mode:multiply;isolation:isolate"/><path d="M346.25,146.091a126.914,126.914,0,0,0-31.125-2.2c-18.749.76-29.5.839-24.858,9.309C290.266,153.2,313.787,158.52,346.25,146.091Z" transform="translate(501.59 191.952)" opacity="0.5" fill="url(#bh)" style="mix-blend-mode:multiply;isolation:isolate"/><path d="M319.56,64.485s-11.38-4.431-15.89-3.723a8.838,8.838,0,0,1,3.645-2.858c1.862-.5,39.333,7.867,39.333,7.867S323.258,62.99,319.56,64.485Z" transform="translate(463.223 52.718)" fill="url(#bi)"/><path d="M280.47,62.217s.892,12.4,4.851,16.887l46.386,5.926,13.609-2.412a33.72,33.72,0,0,1-11.039-8.994C328.482,66.885,298.222,60.251,280.47,62.217Z" transform="translate(525.388 59.181)" fill="url(#bj)"/><path d="M335.131,67.22a104.406,104.406,0,0,0-4.091,18.644l-8.6,2.255a62.066,62.066,0,0,1,12.691-20.9Z" transform="translate(425.521 67.866)" fill="url(#bk)"/><path d="M263.42,125.423s3.278-15.733,11.275-23.39a18.775,18.775,0,0,1,17.1-5.244s-2.491,29.028-5.087,36.107-6.582,8.942-6.582,8.942a22.341,22.341,0,0,0,6.32-14.5c.76-9.6,1-23.154-1.1-24.753s-10.646,4.667-10.646,4.667A28.661,28.661,0,0,1,279,119.1c1.626,8.575-4.353,14.789-6.582,14.658s.131-9.912-.262-12.718S266.829,118.92,263.42,125.423Z" transform="translate(623.621 115.232)" opacity="0.8" fill="url(#bl)" style="mix-blend-mode:multiply;isolation:isolate"/><path d="M273.876,100.07a19.561,19.561,0,0,1,7.867,17.49c-.944,11.774-7.683,11.249-7.709,8.784s1.285-8.837.6-12.429-6.477-1.967-6.477-1.967a83.523,83.523,0,0,1,5.716-11.878Z" transform="translate(621.163 121.154)" opacity="0.8" fill="url(#bm)" style="mix-blend-mode:multiply;isolation:isolate"/><path d="M329.351,57.89s-5.716,4.458-6.792,19.9,5.612,32.646,5.612,32.646a62.223,62.223,0,0,1-9.44-26.93C318.023,69.428,324.815,59.673,329.351,57.89Z" transform="translate(441.16 52.731)" fill="#34c7ff"/><path d="M337.525,70.686a134.309,134.309,0,0,1-27.769,5.8L292.24,78.054s5.848-5.664,18.355-7.368a126.077,126.077,0,0,1,26.93,0Z" transform="translate(502.317 72.319)" fill="url(#bn)"/><path d="M390.767,164s-45.18,32.987-51.028,44.341-8.234,46.937-16.179,62.356c0,0,5.428-25.2,9.23-44.97s2.884-20.034,5.008-24.858S373.644,172.5,390.767,164Z" transform="translate(366.949 224.861)" fill="#34c7ff"/><path d="M317.669,234s21.764,93.219,20.768,99.512-15.078,19.142-15.733,22.656c0,0,10.777,14.422,10.279,17.621s-18.88,23.39-18.355,29.657c.131,1.809,12.062,21.476,12.062,21.476S313.211,405.6,312.556,402.5s16.494-28.844,17.018-31.466c1.285-6.791-8.575-11.774-8.915-16.258s13.373-15.392,13.478-22.682S317.669,234,317.669,234Z" transform="translate(448.149 338.414)" fill="#34c7ff"/><path d="M385.276,318.73s-47.068,106.539-63.116,213.1C322.16,531.835,324.835,427.839,385.276,318.73Z" transform="translate(376.11 475.861)" fill="#34c7ff"/><path d="M201.2,180s12.167-2.622,17.228-13.111,1.757-26.012,1.757-26.012A268.1,268.1,0,0,1,205.9,165.424C201.152,171.56,199.867,178.666,201.2,180Z" transform="translate(858.613 187.356)" fill="#ffbcaf"/><path d="M816,147.7l-8.443,240.716a17.726,17.726,0,0,1-17.726,17.123H375.182a17.752,17.752,0,0,1-17.726-17.333l-5.795-243.5a17.726,17.726,0,0,1,17.831-18.172L798.4,129.346A17.726,17.726,0,0,1,816,147.7Z" transform="translate(-131.966 164.093)" fill="#36d1f7" opacity="0.6"/><path d="M375.6,406.6H790.244A18.355,18.355,0,0,0,808.6,388.849l8.443-240.716A18.355,18.355,0,0,0,798.687,129.1l-428.91-2.806a18.361,18.361,0,0,0-18.355,18.827l5.821,243.522A18.355,18.355,0,0,0,375.6,406.6Zm-5.847-279h0l428.884,2.806a17.1,17.1,0,0,1,16.965,17.7L807.157,388.8a17.018,17.018,0,0,1-17.07,16.493H375.6a17.175,17.175,0,0,1-17.07-16.677l-5.821-243.522a17.1,17.1,0,0,1,17.1-17.49Z" transform="translate(-132.381 163.688)" fill="#744ca2"/><path d="M815.827,159.876H352.566l-.734-12.691A19.456,19.456,0,0,1,371.393,126.6l428.727,3.383a16.074,16.074,0,0,1,15.943,16.389Z" transform="translate(-132.398 164.191)" opacity="0.6" fill="url(#bo)" style="mix-blend-mode:multiply;isolation:isolate"/><path d="M502.561,147.154v139.29H360.78V146.42Z" transform="translate(157.556 196.343)" opacity="0.3" fill="url(#bp)" style="mix-blend-mode:multiply;isolation:isolate"/><rect width="61.674" height="61.674" transform="translate(319.627 352.832)" opacity="0.3" fill="url(#bq)" style="mix-blend-mode:multiply;isolation:isolate"/><rect width="61.674" height="61.674" transform="translate(246.861 352.832)" opacity="0.3" fill="url(#br)" style="mix-blend-mode:multiply;isolation:isolate"/><rect width="61.674" height="61.674" transform="translate(393.625 352.832)" opacity="0.3" fill="url(#br)" style="mix-blend-mode:multiply;isolation:isolate"/><rect width="157.724" height="14.763" transform="translate(246.861 450.482)" fill="#d1d4fb" style="mix-blend-mode:multiply;isolation:isolate"/><rect width="197.188" height="4.563" transform="translate(246.835 472.954)" fill="#d1d4fb" style="mix-blend-mode:multiply;isolation:isolate"/><rect width="37.733" height="4.563" transform="translate(404.428 422.372)" fill="#d1d4fb" style="mix-blend-mode:multiply;isolation:isolate"/><rect width="37.733" height="4.563" transform="translate(331.584 422.372)" fill="#d1d4fb" style="mix-blend-mode:multiply;isolation:isolate"/><rect width="37.733" height="4.563" transform="translate(258.819 422.372)" fill="#d1d4fb" style="mix-blend-mode:multiply;isolation:isolate"/><rect width="63.431" height="4.563" transform="translate(391.868 480.401)" fill="#d1d4fb" style="mix-blend-mode:multiply;isolation:isolate"/><rect width="197.188" height="4.563" transform="translate(246.835 487.743)" fill="#d1d4fb" style="mix-blend-mode:multiply;isolation:isolate"/><rect width="208.437" height="4.563" transform="translate(246.861 495.085)" fill="#d1d4fb" style="mix-blend-mode:multiply;isolation:isolate"/><rect width="208.437" height="4.563" transform="translate(246.861 502.427)" fill="#d1d4fb" style="mix-blend-mode:multiply;isolation:isolate"/><rect width="197.188" height="4.563" transform="translate(246.835 532.111)" fill="#d1d4fb" style="mix-blend-mode:multiply;isolation:isolate"/><rect width="208.437" height="4.563" transform="translate(246.861 539.453)" fill="#d1d4fb" style="mix-blend-mode:multiply;isolation:isolate"/><rect width="208.437" height="4.563" transform="translate(246.861 546.795)" fill="#d1d4fb" style="mix-blend-mode:multiply;isolation:isolate"/><rect width="200.073" height="4.563" transform="translate(255.226 509.77)" fill="#d1d4fb" style="mix-blend-mode:multiply;isolation:isolate"/><rect width="197.188" height="4.563" transform="translate(246.835 517.112)" fill="#d1d4fb" style="mix-blend-mode:multiply;isolation:isolate"/><rect width="168.895" height="4.563" transform="translate(286.404 524.454)" fill="#d1d4fb" style="mix-blend-mode:multiply;isolation:isolate"/><g transform="translate(580.062 374.15)" style="mix-blend-mode:soft-light;isolation:isolate"><path d="M400.859,239.1a40.355,40.355,0,1,0-40.329-40.347A40.355,40.355,0,0,0,400.859,239.1Zm0-78.062a37.733,37.733,0,1,1-37.707,37.716,37.733,37.733,0,0,1,37.707-37.716Z" transform="translate(-360.53 -158.39)" fill="#e0ffff"/></g><circle cx="21.921" cy="21.921" r="21.921" transform="translate(598.47 392.584)" fill="#fff"/><g transform="translate(477.981 302.381)" style="mix-blend-mode:soft-light;isolation:isolate"><path d="M439.815,211.731A40.355,40.355,0,1,0,399.46,171.4a40.355,40.355,0,0,0,40.355,40.329Zm0-78.062a37.773,37.773,0,1,1,0-.079Z" transform="translate(-399.46 -131.02)" fill="#e0ffff"/></g><circle cx="20.695" cy="20.695" r="20.695" transform="matrix(-0.16, -0.987, 0.987, -0.16, 495.408, 365.906)" fill="#fff"/><g transform="translate(647.898 300.703)" style="mix-blend-mode:soft-light;isolation:isolate"><path d="M376.986,134.838l-2.963-4.458L358.08,144.33l2.465,3.409Z" transform="translate(-357.687 -130.38)" fill="#fff"/><path d="M358.24,134.838l2.937-4.458,15.943,13.95-2.439,3.409Z" transform="translate(-358.24 -130.38)" fill="#fff"/></g><rect width="142.752" height="7.159" transform="translate(231.391 303.718)" fill="#fff"/><path d="M258.449,93.353v61.962l-74.077.629L183.35,91.36Z" transform="translate(866.922 107.025)" fill="url(#bt)"/><path d="M216.425,91.36,211.6,99.515l2.412,56.377,3.435.052Z" transform="translate(833.847 107.025)" fill="url(#bu)"/><path d="M232.243,106.248l-6.818-9.938L188.4,127.357l5.69,7.578Z" transform="translate(879.887 115.055)" fill="#fff"/><path d="M188.76,106.248,195.6,96.31l37,31.047-5.664,7.578Z" transform="translate(878.583 115.055)" fill="#fff"/><path d="M169.323,524.515H422.862a20.794,20.794,0,0,0,20.768-20.3l4.72-207.939a20.742,20.742,0,0,0-20.768-21.24H163.633a20.768,20.768,0,0,0-20.768,21.318l5.69,207.965A20.768,20.768,0,0,0,169.323,524.515Z" transform="translate(783.194 404.988)" opacity="0.81" fill="url(#bv)"/><path d="M169.73,525.608H423.269a21.554,21.554,0,0,0,21.423-20.977l4.72-207.965a21.4,21.4,0,0,0-21.423-21.9H164.04a21.4,21.4,0,0,0-21.423,22l5.69,207.965a21.318,21.318,0,0,0,21.423,20.872ZM427.989,276.134A20.06,20.06,0,0,1,448.1,296.691l-4.72,207.965a20.243,20.243,0,0,1-20.112,19.64H169.73a20.033,20.033,0,0,1-20.112-19.561L143.927,296.8a20.112,20.112,0,0,1,20.112-20.663Z" transform="translate(782.788 404.55)" fill="#473da2"/><g transform="translate(985.068 722.56)"><rect width="133.338" height="5.716" transform="translate(0)" fill="#fff"/><rect width="66.656" height="5.716" transform="translate(0 13.871)" fill="#fff"/><rect width="66.656" height="5.716" transform="translate(0 25.488)" fill="#fff"/><rect width="53.047" height="5.716" transform="translate(74.155 25.488)" fill="#fff"/><rect width="107.483" height="5.716" transform="translate(0 37.078)" fill="#fff"/><rect width="38.258" height="5.716" transform="translate(0 48.668)" fill="#fff"/><rect width="66.158" height="5.716" transform="translate(46.124 83.438)" fill="#fff"/><rect width="119.912" height="5.716" transform="translate(0 60.258)" fill="#fff"/><rect width="92.248" height="5.716" transform="translate(0 71.848)" fill="#fff"/><rect width="43.397" height="5.716" transform="translate(0 83.438)" fill="#fff"/><rect width="66.656" height="5.716" transform="translate(0 95.028)" fill="#fff"/><rect width="19.116" height="5.716" transform="translate(0 106.618)" fill="#fff"/><rect width="69.383" height="5.716" transform="translate(27.009 106.618)" fill="#fff"/><rect width="66.158" height="5.716" transform="translate(46.124 117.867)" fill="#fff"/><rect width="43.397" height="5.716" transform="translate(0 117.867)" fill="#fff"/><rect width="66.656" height="5.716" transform="translate(0 129.457)" fill="#fff"/><rect width="19.116" height="5.716" transform="translate(0 141.073)" fill="#fff"/><rect width="69.383" height="5.716" transform="translate(27.009 141.073)" fill="#fff"/></g><path d="M499.78,116.091A11.721,11.721,0,1,0,511.5,104.37,11.721,11.721,0,0,0,499.78,116.091Z" transform="translate(-227.588 128.13)" fill="url(#bw)"/><path d="M78.68,221.5A14.606,14.606,0,1,0,93.259,206.92,14.606,14.606,0,0,0,78.68,221.5Z" transform="translate(1291.944 294.485)" fill="url(#bx)"/><circle cx="11.721" cy="11.721" r="11.721" transform="translate(237.789 232.5)" fill="url(#by)"/><circle cx="8.286" cy="8.286" r="8.286" transform="translate(996.858 316.515)" fill="url(#by)"/><circle cx="8.286" cy="8.286" r="8.286" transform="translate(441.847 682.126)" fill="url(#ca)"/><circle cx="7.395" cy="7.395" r="7.395" transform="translate(1304.178 765.642)" fill="url(#cb)"/><path d="M124.994,358.4H252.956a19.089,19.089,0,0,0,19.063-18.355l2.858-84.146a19.09,19.09,0,0,0-19.089-19.745H122.4a19.09,19.09,0,0,0-19.063,19.666l2.622,84.172A19.09,19.09,0,0,0,124.994,358.4Z" transform="translate(1060.321 341.901)" opacity="0.73" fill="url(#cc)"/><path d="M125.4,359.5H253.363a19.666,19.666,0,0,0,19.719-19.09l2.858-84.146a19.8,19.8,0,0,0-19.745-20.427H122.8a19.745,19.745,0,0,0-19.719,20.348l2.622,84.172A19.64,19.64,0,0,0,125.4,359.5ZM256.195,237.151a18.355,18.355,0,0,1,18.355,19.063l-2.858,84.146a18.355,18.355,0,0,1-18.355,17.831H125.374a18.355,18.355,0,0,1-18.355-17.883L104.4,256.162a18.355,18.355,0,0,1,18.355-19.011Z" transform="translate(1059.914 341.398)" fill="#953da2"/><g transform="translate(1192.132 608.18)"><path d="M144.215,247.64,112.67,284.219l32.148,27.271V297.409l-18.591-16.1L143.481,261.8Z" transform="translate(-112.67 -247.64)" fill="#fff"/><path d="M147.5,248.27l31.571,36.553-32.148,27.271V298.039l18.591-16.1-20.689-21.9Z" transform="translate(-60.501 -246.618)" fill="#fff"/><path d="M127.33,309.462l27.48-60.572h12.927l-31.152,60.572Z" transform="translate(-88.889 -245.612)" fill="#fff"/></g><path d="M444.429,443.507H604.513a23.862,23.862,0,0,0,23.862-23.075l3.566-105.281a23.914,23.914,0,0,0-23.888-24.7H441.2a23.914,23.914,0,0,0-23.888,24.622l3.225,105.307A23.888,23.888,0,0,0,444.429,443.507Z" transform="translate(-120.056 429.986)" opacity="0.73" fill="url(#cd)"/><path d="M444.834,444.5H604.919a24.439,24.439,0,0,0,24.517-23.6L633,315.623a24.544,24.544,0,0,0-24.544-25.383H441.609a24.544,24.544,0,0,0-24.544,25.278l3.225,105.2A24.465,24.465,0,0,0,444.834,444.5ZM608.458,291.446a23.259,23.259,0,0,1,23.233,24.019L628.125,420.72a23.128,23.128,0,0,1-23.206,22.446H444.834A23.128,23.128,0,0,1,421.6,420.641l-3.225-105.281a23.232,23.232,0,0,1,23.232-23.94Z" transform="translate(-120.461 429.645)" fill="#953da2"/><rect width="146.606" height="87.083" transform="translate(333.184 737.375)" fill="#d1d4fb" style="mix-blend-mode:multiply;isolation:isolate"/><path d="M452.55,305.15v43.869l37.471-23.941Z" transform="translate(-70.541 453.832)" fill="#fff"/><rect width="146.606" height="7.971" transform="translate(333.184 840.505)" fill="#d1d4fb" style="mix-blend-mode:multiply;isolation:isolate"/><rect width="37.943" height="7.971" transform="translate(441.847 840.505)" fill="#fff"/><path d="M402.15,306.795l7.631,21.869C405.559,316.575,399.475,308.735,402.15,306.795Zm7.631,21.869,7.683,21.9c-1.94-.577-3.435-9.781-7.683-21.9Zm-7.631-21.869,7.631,21.869C405.559,316.575,399.475,308.735,402.15,306.795Zm7.631,21.869,7.683,21.9c-1.94-.577-3.435-9.781-7.683-21.9ZM387.7,347.648l-7.447,4.2-8.024-21.9,8.6-1.442c-.157-.813-.288-1.626-.393-2.412a56.1,56.1,0,0,1-.734-10.935l-8.994-5.638,4.117-19.3,8.627,8.26a25.332,25.332,0,0,1,4.484-6.424,15.714,15.714,0,0,1,1.495-1.468l-5.244-12.167,14.029-4.563h0l3.356,12.272a22.919,22.919,0,0,1,9.492,2.229l1.547-11.59,15.445,11.669-3.566,10.279a58.5,58.5,0,0,1,7.526,10.961l7.447-4.2,8.024,21.9-8.6,1.442a59.1,59.1,0,0,1,1.128,13.347l8.994,5.638-4.091,19.3-8.627-8.234a23.941,23.941,0,0,1-5.9,7.867l5.244,12.193-13.793,5.375-2.124-7.867L418.25,371.2a23.6,23.6,0,0,1-9.518-2.229l-1.521,11.59-15.445-11.695,3.566-10.253a58.508,58.508,0,0,1-6.057-8.417A18.5,18.5,0,0,1,387.7,347.648Zm22.079-18.985c4.248,12.115,0,24.57,7.683,21.9s10.489-14.684,6.241-26.746-13.9-19.719-21.554-17.018,3.409,9.781,7.63,21.869Zm-7.631-21.869,7.631,21.869C405.559,316.575,399.475,308.735,402.15,306.795Zm7.631,21.869,7.683,21.9c-1.94-.577-3.435-9.781-7.683-21.9Z" transform="translate(185.071 403.074)" fill-rule="evenodd" fill="url(#ce)"/><path d="M373.213,356.337l-8.024-21.9,8.207-3.855,1.311-.629-.865-12.062-9.073-4.432,3.015-18.749,19.8-6.424-3.645,8.679-6.9-14.055,14.029-4.563,5.743-1.862,13.819-5.4,2.622,9.44,12.036-5.716,15.366,11.773-4.668,12.639,14.422,40.041,7.132,25.986-13.714,1.495,4.484,10.305-13.845,5.4L414.7,388.879l3.173-6.346,1.993-3.8-7.29,2.386-12.508,4.064L384.62,373.486l9.545-11.249-12.036-7.421Zm43.45-28.031c-4.248-12.088-13.9-19.719-21.554-17.018l7.631,21.869,7.683,21.9C418.105,352.351,420.911,340.368,416.663,328.306Z" transform="translate(192.112 398.58)" fill-rule="evenodd" fill="url(#cf)"/><path d="M372.7,349.9l-8.024-21.9,8.6-1.442a62.277,62.277,0,0,1-1.154-13.321l-8.915-5.664,4.117-19.3,8.627,8.234a23.6,23.6,0,0,1,5.9-7.866l-5.244-12.167,13.819-5.4,3.592,13.111a23.389,23.389,0,0,1,9.492,2.2l1.521-11.564L420.348,286.6l-3.54,10.279a58.7,58.7,0,0,1,7.526,10.987l7.447-4.2,8,21.9-8.6,1.442a58.841,58.841,0,0,1,1.154,13.321l8.994,5.638-4.091,19.3-8.627-8.234a24.042,24.042,0,0,1-5.9,7.867l5.244,12.167-13.819,5.375-3.566-13.111a23.442,23.442,0,0,1-9.518-2.229l-1.521,11.59L384.083,367l3.566-10.253a58.713,58.713,0,0,1-7.526-10.987Zm37.209-1.285c7.683-2.622,10.489-14.684,6.241-26.746s-13.9-19.719-21.581-17.018-10.489,14.658-6.241,26.746,13.9,19.693,21.581,17.018Z" transform="translate(212.421 398.564)" fill-rule="evenodd" fill="url(#cg)"/><path d="M389.6,291.434l19.771-6.424,8.994,5.638-19.771,6.424Z" transform="translate(166.181 421.161)" fill="#601734" fill-rule="evenodd" opacity="0.5" style="mix-blend-mode:multiply;isolation:isolate"/><path d="M383.67,320.433l19.8-6.451,3.566-10.253-19.8,6.451Z" transform="translate(193.062 451.528)" fill="#b3d9ff" fill-rule="evenodd" style="mix-blend-mode:soft-light;isolation:isolate"/><path d="M410.972,285.333l-10.83,3.147-3.671-3.514L389.26,287.3l-3.33-7.709L405.7,273.14Z" transform="translate(183.198 401.906)" fill="#601734" fill-rule="evenodd" opacity="0.5" style="mix-blend-mode:multiply;isolation:isolate"/><path d="M385.288,309.909l-10.358,4.3.839-6.529a18.565,18.565,0,0,0,9.518,2.229Z" transform="translate(237.726 457.936)" fill="#601734" fill-rule="evenodd" opacity="0.5" style="mix-blend-mode:multiply;isolation:isolate"/><path d="M397.488,289.347l-17.464,9.23a26.821,26.821,0,0,0-4.484-4.746S380.1,274.584,397.488,289.347Z" transform="translate(223.926 419.158)" fill="#601734" fill-rule="evenodd" opacity="0.5" style="mix-blend-mode:multiply;isolation:isolate"/><path d="M235.728,36.96l-16.808,33.7,11.223,5.113,15.733-30.942Z" transform="translate(786.224 18.778)" fill="#ff1d9c"/><path d="M100.025,340.1l-15.576,17.1-6.11-7.054L93.05,333.96Z" transform="translate(1300.702 500.567)" fill="#6877ff"/><path d="M371.74,123.043l15.707,9.519,6.267-11.931-17.123-9.991Z" transform="translate(237.665 138.301)" fill="#4f31e0"/><path d="M398.59,350.449l22.472,15.969,6.293-11.9L405.539,341.77Z" transform="translate(133.617 513.236)" fill="#4f31e0"/><path d="M508.547,138.9l3.8-88.263H396.79l4.746,88Z" transform="translate(53.343 40.97)" fill-rule="evenodd" fill="url(#ch)"/><path d="M399.272,50.64l3.461,5.192L399.272,138.9h-3.8Z" transform="translate(166.421 40.97)" fill-rule="evenodd" fill="url(#ci)"/><path d="M404.51,58.56l18.119-1.94-2.465,60.468-15.654-1.521V109.3l9.073.21,1.023-46.622-10.1.288Z" transform="translate(122.82 50.671)" fill="#fff"/><path d="M443.726,58.56,425.58,56.62l2.491,60.468,15.654-1.521V109.3l-9.073.21L433.6,62.887l10.122.288Z" transform="translate(46.475 50.671)" fill="#fff"/><path d="M67.9,195.209,65.3,135.03h78.77l-3.225,60Z" transform="translate(1290.85 177.866)" fill-rule="evenodd" fill="url(#cj)"/><path d="M96.71,135.03,94.35,138.6l2.36,56.613h2.6Z" transform="translate(1259.44 177.866)" fill-rule="evenodd" fill="url(#ck)"/><path d="M96.63,139.706a54.278,54.278,0,0,0-10.148.367c-1.521.708.393,14.789.393,14.789l-3.435,3.147,3.2,3.12S86.482,175.393,88.5,176.6s8.994,0,8.994,0v-3.566a20.007,20.007,0,0,1-6.713-.419c-.944-.76-.865-13.111-.865-13.111L88.4,157.851l1.521-1.809s-.262-8.889,0-11.328c0-1.626,6.713-1.7,6.713-1.7Z" transform="translate(1289.859 185.305)" fill="#fff"/><path d="M72.019,139.706a54.278,54.278,0,0,1,10.148.367c1.547.708-.393,14.789-.393,14.789l3.461,3.147-3.225,3.12s.157,14.265-1.862,15.471-8.968,0-8.968,0v-3.566a19.851,19.851,0,0,0,6.66-.42c.944-.76.865-13.111.865-13.111l1.521-1.652-1.521-1.809s.288-8.889,0-11.328c0-1.626-6.713-1.7-6.713-1.7Z" transform="translate(1334.267 185.305)" fill="#fff"/><path d="M371.258,118.589l19.3-50.53L340.5,78.549Zm17.228-48.746-17.595,46.1L342.834,79.388Z" transform="translate(322.738 69.228)" fill="#744ca2"/><rect width="28.687" height="1.311" transform="matrix(-0.591, -0.807, 0.807, -0.591, 555.652, 904.121)" fill="#744ca2"/><path d="M333.993,293.695l18.224-22.682-1.023-.813L332.97,292.882Z" transform="translate(380.824 397.137)" fill="#744ca2"/><path d="M112.507,356.848l36.343-26.379-.76-1.049L111.72,355.8Z" transform="translate(1164.349 493.202)" fill="#744ca2"/><rect width="44.918" height="1.311" transform="translate(1307.741 854.617) rotate(-127.3)" fill="#744ca2"/><rect width="1.311" height="26.589" transform="translate(1335.526 463.263) rotate(-117.72)" fill="#744ca2"/><path d="M474.872,91.1l.97-.865L448.65,59.21l-.97.865Z" transform="translate(-43.592 54.872)" fill="#744ca2"/><rect width="1.311" height="27.297" transform="translate(948.577 246.014) rotate(-153.55)" fill="#744ca2"/><rect width="40.749" height="1.311" transform="matrix(-0.767, -0.642, 0.642, -0.767, 1152.257, 659.391)" fill="#744ca2"/></g></svg>